<svg t="1684907343451" class="icon" viewBox="0 0 1024 1024" version="1.1" xmlns="http://www.w3.org/2000/svg" p-id="1290" width="200" height="200"><path d="M944.34 241.22c-27.87-17-55.4-34.61-83.66-50.79-75.5-43.23-82.27-69.36-166.73-82.06-76.2-11.46-300.65-11-376.48 4.08-110.76 22-139.29 67-235.79 128.79-20.56 13.16-30.82 29.95-30.82 58 0 18.09 0.24 30.86 0.42 46.3 0.45 39.46 23.63 64.46 60.27 64.63s73.18 0.12 109.77 0.11c36.39 0 59.9-25.53 59.83-64.86v-51.25a7.53 7.53 0 0 1 7.33-7.72l447.72-0.35a7.51 7.51 0 0 1 7.33 7.71c0 14.17 0.09 44.06 0.5 56.62 1.06 32.91 23.5 58.71 53.62 59.46 41.08 1 82.23 1.12 123.31 0 29.81-0.83 52.94-28.13 52.94-60.09 0-18.14 0.25-31.65 0.25-52.92-0.01-27.13-9.7-43.42-29.81-55.66z" p-id="1291"></path><path d="M705.55 411.79a89.42 89.42 0 0 0-67.9-31.59h-250.3a89.42 89.42 0 0 0-67.9 31.59L150.31 609.41a126.67 126.67 0 0 0-30.21 82.35v186.32c0 25.78 20.27 46.67 45.28 46.67h694.23c25 0 45.28-20.89 45.28-46.67V691.76a126.72 126.72 0 0 0-30.2-82.35z m-193 364.83C443.2 776.62 387 720.91 387 652.19s56.2-124.43 125.5-124.43S638 583.47 638 652.19s-56.21 124.43-125.5 124.43z" p-id="1292"></path></svg>