<svg t="1718172233670" viewBox="0 0 1368 1024" version="1.1" xmlns="http://www.w3.org/2000/svg" p-id="2003" width="200" height="200"><path d="M 1329.47 580.552 h -221.287 v -5.2479 a 420.707 420.707 0 0 0 -16.6184 -111.081 a 231.782 231.782 0 0 0 180.178 -225.66 a 37.61 37.61 0 0 0 -37.61 -37.61 a 38.4846 38.4846 0 0 0 -38.4846 37.61 a 154.813 154.813 0 0 1 -131.198 153.064 a 425.955 425.955 0 0 0 -174.93 -186.301 a 164.434 164.434 0 0 0 4.37325 -29.7381 a 195.922 195.922 0 0 0 -210.791 -174.93 a 195.047 195.047 0 0 0 -209.916 174.93 a 174.93 174.93 0 0 0 0 29.7381 a 425.955 425.955 0 0 0 -152.189 150.44 A 153.939 153.939 0 0 1 174.93 201.828 a 38.4846 38.4846 0 0 0 -38.4846 -37.61 a 37.61 37.61 0 0 0 -37.61 37.61 a 230.033 230.033 0 0 0 187.175 226.535 A 425.08 425.08 0 0 0 262.395 542.942 H 37.61 a 38.4846 38.4846 0 0 0 -37.61 38.4846 a 37.61 37.61 0 0 0 37.61 37.61 H 262.395 a 437.325 437.325 0 0 0 23.6156 102.334 a 231.782 231.782 0 0 0 -191.549 227.409 a 37.61 37.61 0 0 0 37.61 37.61 a 38.4846 38.4846 0 0 0 42.8579 -37.61 a 155.688 155.688 0 0 1 146.067 -154.813 a 421.582 421.582 0 0 0 704.094 32.3621 a 35.8607 35.8607 0 0 0 16.6184 4.37325 a 154.813 154.813 0 0 1 154.813 154.813 a 38.4846 38.4846 0 0 0 38.4846 38.4846 a 38.4846 38.4846 0 0 0 37.61 -38.4846 a 230.033 230.033 0 0 0 -206.418 -228.284 a 369.103 369.103 0 0 0 34.1114 -100.585 h 229.158 a 38.4846 38.4846 0 0 0 37.61 -38.4846 a 37.61 37.61 0 0 0 -37.61 -37.61 Z M 683.102 76.7532 c 73.4707 0 132.072 42.8579 133.822 97.0862 a 388.345 388.345 0 0 0 -262.395 0 A 120.702 120.702 0 0 1 683.102 76.7532 Z m 38.4846 844.038 V 818.457 a 38.4846 38.4846 0 0 0 -76.0946 0 v 102.334 a 349.86 349.86 0 0 1 0 -690.974 v 343.738 a 38.4846 38.4846 0 0 0 76.0946 0 V 229.817 A 349.86 349.86 0 0 1 1005.85 437.984 v 6.12256 a 364.729 364.729 0 0 1 24.4902 127.699 a 349.86 349.86 0 0 1 -308.752 348.986 Z" p-id="2004"></path></svg>