<svg t="1714099013600" class="icon" viewBox="0 0 1024 1024" version="1.1" xmlns="http://www.w3.org/2000/svg" p-id="3007" width="200" height="200"><path d="M948.030409 156.104323a150.613416 150.613416 0 0 0-138.919951-92.117192l-40.098072 0.028899a31.926735 31.926735 0 1 0 0.0289 63.849858h40.123359a86.178343 86.178343 0 0 1 61.368112 25.467695C886.91878 169.784629 895.884854 191.614598 895.884854 214.820906v105.270082L128.003161 320.062089l-0.119211-0.032512V214.820906a86.95863 86.95863 0 0 1 86.868319-86.879157L255.760676 128.241582h0.231196a31.970084 31.970084 0 0 0 0.220359-63.940169l-41.142067-0.285383h-0.220359A150.85545 150.85545 0 0 0 63.940169 214.820906v594.300389A150.638703 150.638703 0 0 0 214.85703 959.825022h594.28594A150.385832 150.385832 0 0 0 959.825022 809.121295V214.820906a149.825904 149.825904 0 0 0-11.794613-58.716583z m-77.522939 714.39231a86.102482 86.102482 0 0 1-61.3645 25.388221H214.85703a86.369802 86.369802 0 0 1-61.483711-25.391834c-16.41131-16.407698-25.492981-38.16903-25.492981-61.375337V384.002258h0.115598l767.888918 0.028899v425.090138a86.106094 86.106094 0 0 1-25.377384 61.371725z" fill="" p-id="3008"></path><path d="M415.972342 159.969633a31.970084 31.970084 0 0 0 31.970085-31.970085V64.00158a31.970084 31.970084 0 0 0-63.940169 0v63.997968a31.970084 31.970084 0 0 0 31.970084 31.970085zM608.154093 159.969633a31.970084 31.970084 0 0 0 31.970085-31.970085V64.00158a31.970084 31.970084 0 0 0-63.940169 0v63.997968a31.970084 31.970084 0 0 0 31.970084 31.970085zM640.124178 447.942427h-256.12192a31.970084 31.970084 0 0 0 0 63.940169h195.837539c-9.865571 15.815258-20.952146 34.697476-32.071233 55.830243-19.445759 36.966088-34.979246 73.260261-46.170582 107.867427-14.312483 44.270439-21.569873 86.080807-21.569873 124.267899a31.970084 31.970084 0 1 0 63.940169 0c0-31.334295 6.141146-66.324379 18.278941-104.005729 9.977556-31.001951 23.972145-63.759547 41.586397-97.366067 30.413123-58.019382 61.368112-98.727956 61.664333-99.114487A31.970084 31.970084 0 0 0 640.124178 447.942427z" fill="" p-id="3009"></path></svg>