<svg t="1718171908811" viewBox="0 0 1024 1024" version="1.1" xmlns="http://www.w3.org/2000/svg" p-id="10740" width="200" height="200"><path d="M222.08 192.00000001c-12.224 0-24.576 4.672-33.91999999 14.08-18.752 18.752-18.752 49.152 0 67.904l222.08 222.08-222.08000001 222.07999999c-18.752 18.752-18.752 49.152 0 67.904s49.152 18.752 67.904 0l255.99999999-255.99999999C530.752 511.16799999 530.752 480.83200001 512 462.08000002l-256-256.00000001C246.656 196.67200001 234.368 192.00000001 222.08 192.00000001z" p-id="10741"></path><path d="M542.08 192.00000001c-12.288 0-24.576 4.672-33.92 14.08000001-18.752 18.752-18.752 49.152 1e-8 67.90399999l222.08 222.08-222.08000001 222.07999999c-18.752 18.752-18.752 49.152 0 67.904S557.248 804.67199999 576 785.92l255.99999999-255.99999999C850.752 511.16799999 850.752 480.83200001 832 462.08000002l-256-256.00000001C566.656 196.67200001 554.368 192.00000001 542.08 192.00000001z" p-id="10742"></path></svg>