<svg t="1718171623156" viewBox="0 0 1024 1024" version="1.1" xmlns="http://www.w3.org/2000/svg" p-id="4263" width="200" height="200">
  <path d="M801.92 768c12.224 0 24.576-4.672 33.92-14.08 18.752-18.752 18.752-49.152 0-67.904l-222.08-222.08 222.08-222.08c18.752-18.752 18.752-49.152 0-67.904s-49.152-18.752-67.904 0l-256 256C493.248 448.832 493.248 479.168 512 497.92l256 256C777.344 763.328 789.632 768 801.92 768z" p-id="4264"></path>
  <path d="M481.92 768c12.288 0 24.576-4.672 33.92-14.08 18.752-18.752 18.752-49.152 0-67.904l-222.08-222.08 222.08-222.08c18.752-18.752 18.752-49.152 0-67.904S466.752 155.328 448 174.08l-256 256C173.248 448.832 173.248 479.168 192 497.92l256 256C457.344 763.328 469.632 768 481.92 768z" p-id="4265"></path>
</svg>