<svg viewBox="0 0 1024 1024" version="1.1" xmlns="http://www.w3.org/2000/svg">
  <path d="M342.753853 560.489364c-0.582261 0.775666-1.165546 1.578961-1.432629 2.550079L296.089044 734.470861c-2.623757 9.984399 0.071631 20.745487 7.215332 28.326139 5.344728 5.392824 12.388145 8.355295 19.895119 8.355295 2.476401 0 4.953825-0.290619 7.383154-0.970095l164.630524-46.423309c0.267083 0 0.388856 0.242524 0.582262 0.242524 1.896186 0 3.76679-0.705058 5.1503-2.209318l440.229396-455.072453c13.069667-13.531178 20.233833-31.969109 20.233834-52.034097 0-22.738887-9.328459-45.452191-25.651217-62.311161l-41.564651-43.046398c-16.324804-16.882506-38.335097-26.551726-60.294224-26.551726-19.409049 0-37.241182 7.40976-50.357922 20.916378l-440.133205 455.217763c-0.459464 0.436952-0.337691 1.068332-0.653893 1.578961z m555.327808-338.346985l-43.726898 45.183062-70.860884-74.455759 43.094494-44.552705c6.801916-7.093559 20.017916-6.048763 27.839045 2.065032l41.611723 43.046399c4.325515 4.494361 6.801916 10.444886 6.801917 16.348339-0.023536 4.835122-1.675152 9.231245-4.759397 12.365632zM421.025521 567.631018l317.647547-328.435241 70.934562 74.503855L492.540298 641.503493l-71.514777-73.872475m-57.866943 133.169999l22.957875-87.113033 61.241806 63.306838-84.199681 23.806195M925.967778 402.489864c-16.663518 0-30.316469 14.017248-30.389124 31.485085v424.267866c0 22.25077-17.466814 40.324404-39.014572 40.324404H162.381809c-21.523199 0-39.061644-18.073634-39.061644-40.324404V165.734672c0-22.276353 17.539468-40.35101 39.061644-40.35101h447.079408c16.762779 0 30.365588-14.08888 30.365588-31.409361 0-17.295921-13.602809-31.385824-30.365588-31.385824H157.742139c-52.447513 0-95.154173 44.11473-95.154174 98.384751v702.07708c0 54.271044 42.706661 98.360192 95.154174 98.360192H861.15668c52.495608 0 95.15315-44.089148 95.15315-98.360192v-429.297416c-0.049119-17.246803-13.676487-31.263028-30.342052-31.263028z"></path>
</svg>