<svg viewBox="0 0 1024 1024" version="1.1" xmlns="http://www.w3.org/2000/svg">
  <path d="M757.76 319.146667c-10.24-8.533333-25.6-11.946667-39.253333-5.12-11.946667 5.12-18.773333 17.066667-18.773334 29.013333v360.106667c0 11.946667 6.826667 23.893333 18.773334 29.013333 5.12 1.706667 10.24 3.413333 15.36 3.413333 8.533333 0 17.066667-3.413333 23.893333-8.533333L969.386667 546.133333c6.826667-6.826667 11.946667-15.36 11.946666-23.893333 0-8.533333-3.413333-17.066667-11.946666-23.893333L757.76 319.146667zM66.56 109.226667H955.733333c18.773333 0 32.426667-15.36 32.426667-32.426667S972.8 44.373333 955.733333 44.373333H66.56c-17.066667-1.706667-32.426667 13.653333-32.426667 32.426667s15.36 32.426667 32.426667 32.426667zM66.56 399.36h481.28c18.773333 0 32.426667-15.36 32.426667-32.426667s-15.36-32.426667-32.426667-32.426666H66.56c-18.773333 0-32.426667 15.36-32.426667 32.426666s15.36 32.426667 32.426667 32.426667zM66.56 689.493333h481.28c18.773333 0 32.426667-15.36 32.426667-32.426666 0-18.773333-15.36-32.426667-32.426667-32.426667H66.56c-18.773333 0-32.426667 15.36-32.426667 32.426667 0 18.773333 15.36 32.426667 32.426667 32.426666zM957.44 914.773333H66.56c-18.773333 0-32.426667 15.36-32.426667 32.426667 0 18.773333 15.36 32.426667 32.426667 32.426667H955.733333c18.773333 0 32.426667-15.36 32.426667-32.426667 1.706667-17.066667-13.653333-32.426667-30.72-32.426667z"></path>
</svg>