<svg t="1717254862293" viewBox="0 0 1024 1024" version="1.1" xmlns="http://www.w3.org/2000/svg" p-id="2527" width="200" height="200"><path d="M229.8 163l55.7-55.7c6-6 2.4-16.2-6-17.2l-203.2-24c-6.5-0.8-12 4.7-11.3 11.3l24 203.2c1 8.4 11.3 11.9 17.2 6l55.4-55.4 169.6 169.4c3.9 3.9 10.4 3.9 14.3 0l53.8-53.6c3.9-3.9 3.9-10.4 0-14.3L229.8 163z m447.3 237.6c3.9 3.9 10.4 3.9 14.3 0L861 231.1l55.4 55.4c6 6 16.2 2.4 17.2-6l24-203c0.8-6.5-4.7-12-11.3-11.3l-203.2 24c-8.4 1-11.9 11.3-6 17.2l55.7 55.7-169.5 169.4c-3.9 3.9-3.9 10.4 0 14.3l53.8 53.8z m256.6 343.9c-1-8.4-11.3-11.9-17.2-6L861 794 691.4 624.5c-3.9-3.9-10.4-3.9-14.3 0l-53.8 53.6c-3.9 3.9-3.9 10.4 0 14.3L792.9 862l-55.7 55.7c-6 6-2.4 16.2 6 17.2l203.2 24c6.5 0.8 12-4.7 11.3-11.3l-24-203.1z m-588.1-120c-3.9-3.9-10.4-3.9-14.3 0L161.7 794l-55.4-55.4c-6-6-16.2-2.4-17.2 6l-24 203c-0.8 6.5 4.7 12.1 11.3 11.3l203.2-24c8.4-1 11.9-11.3 6-17.2l-55.7-55.5 169.6-169.4c3.9-3.9 3.9-10.4 0-14.3l-53.9-54z m0 0" p-id="2528"></path></svg>