<svg viewBox="0 0 1024 1024" version="1.1" xmlns="http://www.w3.org/2000/svg">
  <path d="M512 67.463529a225.882353 225.882353 0 0 1 93.184 431.706353 436.705882 436.705882 0 0 1 343.341176 412.250353l0.180706 14.396236v24.094117a6.023529 6.023529 0 0 1-6.023529 6.02353h-78.305882a6.023529 6.023529 0 0 1-6.02353-6.02353v-24.094117A346.352941 346.352941 0 0 0 548.141176 581.330824l53.669648 250.458352a6.023529 6.023529 0 0 1-0.843295 4.577883l-56.982588 87.280941a6.023529 6.023529 0 0 1-5.059765 2.710588h-53.850352a6.023529 6.023529 0 0 1-5.059765-2.710588l-56.982588-87.280941a6.023529 6.023529 0 0 1-0.843295-4.577883l54.332236-250.578823a346.413176 346.413176 0 0 0-310.633412 331.294118l-0.240941 13.312v24.094117a6.023529 6.023529 0 0 1-6.02353 6.02353H81.317647a6.023529 6.023529 0 0 1-6.023529-6.02353v-24.094117a436.886588 436.886588 0 0 1 343.582117-426.767059A225.882353 225.882353 0 0 1 512 67.463529z m0 90.352942a135.529412 135.529412 0 1 0 0 271.058823 135.529412 135.529412 0 0 0 0-271.058823z"></path>
</svg>