<svg t="1718172317068" viewBox="0 0 1024 1024" version="1.1" xmlns="http://www.w3.org/2000/svg" p-id="3506" width="200" height="200"><path d="M1014.648749 968.310857l-171.853215-171.853215a32.412822 32.412822 0 0 0-11.311857-7.178679 475.098003 475.098003 0 1 0-42.201929 42.201929 32.412822 32.412822 0 0 0 7.178679 11.311857l171.853215 171.853215a32.630357 32.630357 0 0 0 46.117571-46.117571zM476.030318 884.777142a408.967145 408.967145 0 1 1 408.967145-408.967145 409.402217 409.402217 0 0 1-408.967145 408.967145z" p-id="3507"></path><path d="M476.030318 688.994998a213.402537 213.402537 0 0 1-213.185002-213.185001 32.630357 32.630357 0 0 0-65.260714 0 278.663252 278.663252 0 0 0 278.445716 278.445716 32.630357 32.630357 0 1 0 0-65.260715z" p-id="3508"></path></svg>