<svg viewBox="0 0 1024 1024" version="1.1" xmlns="http://www.w3.org/2000/svg">
  <path d="M174.545 465.455c0-18.619 16.291-34.91 34.91-34.91s34.909 16.291 34.909 34.91c0 121.018 100.072 221.09 221.09 221.09 18.619 0 34.91 16.291 34.91 34.91s-16.291 34.909-34.91 34.909c-160.581 0-290.909-130.328-290.909-290.91z m290.91 360.727c200.145 0 360.727-160.582 360.727-360.727S665.6 104.727 465.455 104.727 104.727 265.31 104.727 465.455 265.31 826.182 465.455 826.182z m323.49-76.8L961.164 921.6c13.963 13.964 13.963 34.91 0 48.873-13.964 13.963-34.91 13.963-48.873 0L737.745 795.927c-74.472 60.51-169.89 97.746-272.29 97.746C228.073 896 34.909 702.836 34.909 465.455S228.073 34.909 465.455 34.909 896 228.073 896 465.455c0 109.381-39.564 209.454-107.055 283.927z"></path>
</svg>