<svg viewBox="0 0 1024 1024" version="1.1" xmlns="http://www.w3.org/2000/svg">
  <path d="M815.98 379.92c21.84-0.2 41.83-12.04 51.39-31.48l77.52-157.47c10.42-21.18 6.46-46.86-9.88-63.91L894.3 84.57c-18.3-19.09-46.97-22.94-69.62-9.4l-156.63 93.49c-16.94 10.12-27.47 28.67-27.47 48.41v70.13l-100.32 96.14c-30.02-32.81-56.01-61.27-69.8-76.49 10.82-91.02-6.52-157.53-51.59-197.79-63.69-56.86-158.93-40.02-196.93-30.12A37.72 37.72 0 0 0 194.92 106c-3.44 13.3 0.62 27.45 10.58 36.91l62.45 59.41c-1.18 16.28-8.15 31.38-19.89 42.97-10.64 10.5-24.11 17.02-38.66 18.86l-68.29-66.01c-10.3-9.94-25.07-13.21-38.63-8.54-13.49 4.66-23.08 16.34-25.05 30.45-6.29 45.12-13.59 156.76 54.53 218.73 40.81 37.14 99.25 48.39 173.87 33.53 2.06 2.16 4.34 4.57 6.79 7.14 13.14 13.81 29.93 31.45 43.35 44.9L114.99 765.29c-22.6 22.6-36.69 51.38-39.68 81.04-3.19 31.61 6.92 61.67 27.74 82.48 18.28 18.29 43.72 28.31 71.06 28.31 3.78 0 7.59-0.19 11.42-0.57 29.66-2.99 58.44-17.09 81.03-39.68l252.02-252.01c9.58 10.32 21.64 23.9 32.87 38.29-11.86 95.35 5.6 164.39 51.94 205.3 34.38 30.35 77.67 39.1 116.13 39.1 32.77 0 62.02-6.34 79.31-11.09 13.2-3.63 23.4-14.15 26.64-27.45 3.24-13.34-1.01-27.42-11.08-36.71l-60.43-55.97a61.251 61.251 0 0 1 18.28-42.72 61.258 61.258 0 0 1 38.8-17.45c17.16 17.36 45.84 46.04 61.23 59.6 9.95 8.77 23.99 11.7 36.59 7.56 12.69-4.12 22.38-14.75 25.28-27.72 21.94-97.55 10.13-167.95-35.08-209.25-58.66-53.6-151.71-37.85-196.52-25.9l-70.59-76.98 109.16-104.59 74.87 1.04zM358.8 435.47c-8.68-9.12-15.47-16.23-18.03-18.74-9.26-9.07-22.36-12.66-35.09-9.68-59.9 14.22-103.91 9.01-130.81-15.46-25.92-23.59-36.17-65.75-37.37-108.22l35.6 34.42a37.609 37.609 0 0 0 25.8 10.67c34.92 0.47 68.73-12.92 93.94-37.76 25.2-24.85 39.08-58.02 39.08-93.42v-5.95c0-10.33-4.3-20.34-11.75-27.39l-32.68-31.08c29.48-1.76 64.73 2.19 88.91 23.79 30.15 26.93 40.01 78.55 29.33 153.37-1.6 11.04 1.7 22.1 9.08 30.37 8.99 10.07 41.01 45.15 79.39 87.1l-12.5 11.98-20.44-20.44-60.21 60.21c-12.98-13.01-29.99-30.89-42.25-43.77zM221.47 871.78c-23.12 23.09-56.67 28.54-73.32 11.94-9.87-9.88-10.11-23.66-9.37-30.99 1.49-14.85 9.26-30.27 21.31-42.33l301.16-301.17 61.38 61.38-301.16 301.17z m445.07-256.21c9.97 10.83 25.43 14.91 39.29 10.37 10.73-3.44 106.26-32.64 150.22 7.51 23.92 21.85 27.62 61.79 23.68 101.23a3202.444 3202.444 0 0 1-30.7-30.87c-6.35-6.48-14.86-10.45-23.98-11.18-36.18-2.94-71.68 10.09-97.52 35.51a124.98 124.98 0 0 0-37.11 96.93l0.35 5.65c0.66 9.74 4.98 18.72 12.04 25.19l29.6 27.42c-28.91 1.85-63.07-1.73-86.8-22.68-38.51-34-37.34-105.29-29.57-159.16 1.4-9.82-1.17-20.05-7.11-28.12-15.2-20.54-32.45-39.95-45.22-53.62l49.13-49.13-35.15-35.15 8.2-7.86 80.65 87.96z m32.65-284.84l-166.6 159.62-5.77-5.77 160.11-153.44c11.09-10.59 17.44-25.46 17.44-40.78v-69.1l147.95-88.31 33.06 34.5-73.16 148.62-73.27-1.02c-15.21-0.32-29.05 5.38-39.76 15.68z"></path>
</svg>